<svg xmlns="http://www.w3.org/2000/svg" viewBox="0 -1470 7681.76 1500" width="327.76" height="64" role="img" aria-label="Sleeve"><title>Sleeve</title><path fill="#0B0B0C" d="M367.5 -1470H1102.5C1305.46 -1470 1470 -1305.46 1470 -1102.5L1470 -857.5C1470 -789.85 1415.15 -735 1347.5 -735H857.5C789.85 -735 735 -680.15 735 -612.5V-122.5C735 -54.85 680.15 0 612.5 0H367.5C164.54 0 0 -164.54 0 -367.5L0 -1102.5C0 -1305.46 164.54 -1470 367.5 -1470Z"/><path fill="#007456" d="M980 -612.5H1347.5C1415.15 -612.5 1470 -557.65 1470 -490V-367.5C1470 -164.54 1305.46 0 1102.5 0L980 0C912.35 0 857.5 -54.85 857.5 -122.5V-490C857.5 -557.65 912.35 -612.5 980 -612.5Z"/><path fill="#0B0B0C" d="M2388 30Q2188 30 2063 -60Q1938 -150 1911 -313L2157 -351Q2176 -271 2241 -225Q2306 -179 2405 -179Q2492 -179 2539.5 -213.5Q2587 -248 2587 -308Q2587 -345 2569.5 -367.5Q2552 -390 2493 -411Q2434 -432 2312 -464Q2176 -500 2096 -541.5Q2016 -583 1981 -640Q1946 -697 1946 -778Q1946 -879 1999 -954Q2052 -1029 2147 -1069.5Q2242 -1110 2371 -1110Q2497 -1110 2594.5 -1071Q2692 -1032 2752 -960Q2812 -888 2826 -791L2580 -747Q2571 -816 2517.5 -856Q2464 -896 2375 -901Q2290 -906 2238 -875.5Q2186 -845 2186 -790Q2186 -759 2207 -737Q2228 -715 2291.5 -693Q2355 -671 2481 -639Q2610 -606 2687.5 -563.5Q2765 -521 2799.5 -462Q2834 -403 2834 -319Q2834 -156 2715.5 -63Q2597 30 2388 30ZM3004 0V-1470H3245V0ZM3966 30Q3802 30 3678 -41Q3554 -112 3484.5 -238Q3415 -364 3415 -528Q3415 -705 3483 -835.5Q3551 -966 3672 -1038Q3793 -1110 3952 -1110Q4120 -1110 4237.5 -1031.5Q4355 -953 4412 -810Q4469 -667 4455 -473H3673Q3685 -357 3742 -286Q3814 -196 3952 -196Q4041 -196 4105.5 -235.5Q4170 -275 4205 -350L4443 -278Q4381 -132 4251.5 -51Q4122 30 3966 30ZM4210 -655Q4197 -760 4154 -818Q4093 -899 3962 -899Q3814 -899 3742 -808Q3696 -749 3679 -655ZM5100 30Q4936 30 4812 -41Q4688 -112 4618.5 -238Q4549 -364 4549 -528Q4549 -705 4617 -835.5Q4685 -966 4806 -1038Q4927 -1110 5086 -1110Q5254 -1110 5371.5 -1031.5Q5489 -953 5546 -810Q5603 -667 5589 -473H4807Q4819 -357 4876 -286Q4948 -196 5086 -196Q5175 -196 5239.5 -235.5Q5304 -275 5339 -350L5577 -278Q5515 -132 5385.5 -51Q5256 30 5100 30ZM5344 -655Q5331 -760 5288 -818Q5227 -899 5096 -899Q4948 -899 4876 -808Q4830 -749 4813 -655ZM5995 0 5603 -1080H5844L6116 -297L6387 -1080H6629L6237 0ZM7190 30Q7026 30 6902 -41Q6778 -112 6708.5 -238Q6639 -364 6639 -528Q6639 -705 6707 -835.5Q6775 -966 6896 -1038Q7017 -1110 7176 -1110Q7344 -1110 7461.5 -1031.5Q7579 -953 7636 -810Q7693 -667 7679 -473H6897Q6909 -357 6966 -286Q7038 -196 7176 -196Q7265 -196 7329.5 -235.5Q7394 -275 7429 -350L7667 -278Q7605 -132 7475.5 -51Q7346 30 7190 30ZM7434 -655Q7421 -760 7378 -818Q7317 -899 7186 -899Q7038 -899 6966 -808Q6920 -749 6903 -655Z"/></svg>
